<?xml version="1.0" encoding="utf-8"?>
<svg viewBox="0 0 500 500" xmlns="http://www.w3.org/2000/svg">
  <path stroke="none" d="M 199.709 337.96 C 178.594 337.962 157.62 337.954 136.648 337.988 C 135.349 337.991 134.722 337.699 134.918 336.458 C 134.968 336.161 134.945 335.848 134.902 335.548 C 134.767 334.551 135.278 334.269 136.327 334.293 C 139.021 334.356 141.713 334.31 144.408 334.368 C 145.408 334.39 145.807 334.079 145.738 333.168 C 145.673 332.346 145.728 331.517 145.728 330.691 C 145.728 296.624 145.728 262.556 145.728 228.488 C 145.728 226.469 145.726 226.462 143.45 226.47 C 141.046 226.478 138.641 226.478 136.237 226.525 C 135.331 226.542 134.883 226.263 134.911 225.41 C 135.013 222.401 134.592 222.88 137.504 222.878 C 167.66 222.857 197.819 222.867 227.981 222.841 C 229.155 222.84 229.659 223.026 229.719 224.235 C 230.21 234.212 230.795 244.188 231.299 254.165 C 231.32 254.583 230.845 255.367 230.551 255.388 C 229.53 255.463 228.283 255.845 227.662 254.605 C 226.609 252.511 225.601 250.396 224.493 248.326 C 222.184 244.013 219.524 239.904 216.065 236.234 C 211.606 231.503 205.931 228.534 199.259 227.577 C 193.827 226.797 188.259 226.807 182.754 226.475 C 181.605 226.406 181.154 226.864 181.156 227.945 C 181.185 243.893 181.176 259.84 181.178 275.788 C 181.178 276.439 181.077 277.215 182.141 277.223 C 186.07 277.252 190.014 277.577 193.825 276.241 C 199.33 274.311 203.171 270.76 205.696 266.105 C 207.294 263.162 208.37 259.983 209.591 256.882 C 209.892 256.119 210.22 255.71 211.164 255.693 C 212.239 255.673 212.695 255.945 212.692 257.022 C 212.659 272.361 212.671 287.7 212.666 303.04 C 212.664 303.668 212.837 304.465 211.684 304.404 C 210.678 304.351 209.541 304.807 209.137 303.255 C 207.929 298.59 206.24 294.07 203.365 289.985 C 199.696 284.768 194.465 281.959 187.61 281.694 C 185.883 281.626 184.148 281.676 182.418 281.63 C 181.474 281.605 181.161 281.968 181.161 282.798 C 181.185 299.484 181.189 316.17 181.185 332.855 C 181.185 333.743 181.321 334.36 182.564 334.362 C 188.294 334.368 194.002 334.272 199.609 332.989 C 206.752 331.356 212.996 328.262 218.375 323.732 C 225.079 318.088 229.512 311.177 232.244 303.327 C 232.615 302.266 235 301.504 235.966 302.204 C 236.219 302.39 236.289 302.901 236.28 303.258 C 236.218 305.429 236.114 307.598 236.023 309.766 C 235.659 318.665 235.262 327.563 234.961 336.464 C 234.915 337.701 234.469 337.989 233.184 337.985 C 222.078 337.947 210.965 337.961 199.709 337.96 Z" style="fill: rgb(128, 128, 128);" transform="matrix(1, 0.000396, -0.000396, 1, 0.111059, -0.073468)"/>
  <path opacity="1.000000" stroke="none" d="M 273.016 235.206 C 271.627 238.796 271.305 242.316 272.53 245.912 C 273.903 249.938 276.99 252.683 280.85 254.73 C 287.619 258.322 295.225 259.904 302.663 261.916 C 309.306 263.712 315.919 265.657 322.376 267.929 C 328.046 269.921 332.946 273.144 336.98 277.301 C 341.856 282.327 344.186 288.36 344.988 294.866 C 345.843 301.81 345.187 308.677 342.52 315.286 C 338.2 325.988 329.998 333.219 318.082 337.028 C 309.768 339.684 301.203 339.986 292.506 339.295 C 284.503 338.658 276.663 337.231 268.847 335.64 C 267.439 335.352 266.016 335.084 264.584 334.934 C 260.328 334.485 259.419 334.935 257.57 338.407 C 257.128 339.237 256.651 339.715 255.523 339.65 C 254.602 339.599 254.245 339.333 254.225 338.499 C 254.168 336.11 254.058 333.722 253.948 331.335 C 253.481 321.266 253.007 311.199 252.542 301.131 C 252.535 301.009 252.605 300.884 252.636 300.771 C 255.066 300.16 255.628 300.378 256.825 302.428 C 261.552 310.519 267.386 317.89 274.735 324.217 C 280.404 329.098 286.709 333.16 294.418 335.032 C 303.155 337.152 311.507 336.448 318.952 331.492 C 324.415 327.857 326.149 322.696 325.624 316.762 C 325.033 310.078 320.83 305.7 314.598 302.599 C 308.943 299.786 302.815 298.083 296.689 296.346 C 290.253 294.521 283.784 292.738 277.5 290.539 C 270.378 288.049 264.228 284.162 259.715 278.479 C 256.129 273.963 254.308 268.839 253.558 263.358 C 253.029 259.501 252.911 255.651 253.513 251.8 C 254.759 243.838 258.445 236.981 264.989 231.423 C 271.341 226.027 278.941 222.992 287.493 221.773 C 298.811 220.162 309.783 221.772 320.626 224.671 C 323.62 225.47 326.61 226.389 329.835 226.129 C 331.311 226.01 332.375 225.407 333.162 224.321 C 333.372 224.03 333.539 223.631 333.843 223.496 C 334.438 223.231 335.111 223.033 335.763 223.003 C 335.92 222.995 336.262 223.747 336.279 224.156 C 336.453 228.236 336.563 232.32 336.715 236.401 C 336.94 242.434 337.201 248.466 337.39 254.5 C 337.407 255.045 337.08 256.029 336.786 256.071 C 335.787 256.212 334.695 256.528 333.928 255.285 C 329.847 248.673 325.424 242.253 319.766 236.61 C 315.289 232.146 310.237 228.32 303.85 226.27 C 295.766 223.673 287.818 223.93 280.261 227.841 C 277.003 229.527 274.588 231.989 273.016 235.206 Z" style="fill: rgb(128, 128, 128);" transform="matrix(1, 0.000396, -0.000396, 1, 0.11106, -0.118359)"/>
</svg>